<?xml version="1.0" encoding="UTF-8" standalone="no"?>
<!-- Created with Inkscape (http://www.inkscape.org/) -->

<svg
   width="31.546999mm"
   height="15.868mm"
   viewBox="0 0 31.546999 15.868"
   version="1.1"
   id="svg1"
   xmlns="http://www.w3.org/2000/svg"
   xmlns:svg="http://www.w3.org/2000/svg">
  <defs
     id="defs1" />
  <g
     id="layer1"
     transform="translate(-101.75054,-143.99094)">
    <g
       id="barcode"
       style="fill:#000000"
       transform="matrix(0.264583,0,0,0.264583,105,148)">
      <g
         id="g1">
        <g
           id="g8">
          <g
             id="g7">
            <rect
               style="fill:#ffffff;fill-opacity:1;stroke:none;stroke-width:1.55612;paint-order:stroke markers fill"
               id="rect7"
               width="119.2329"
               height="59.973618"
               x="-12.281436"
               y="-15.152356" />
            <rect
               x="0"
               y="0"
               id="barcode_bar1"
               width="1"
               height="34" />
            <rect
               x="2"
               y="0"
               id="barcode_bar3"
               width="1"
               height="34" />
            <rect
               x="4"
               y="0"
               id="barcode_bar5"
               width="3"
               height="30" />
            <rect
               x="8"
               y="0"
               id="barcode_bar7"
               width="2"
               height="30" />
            <rect
               x="13"
               y="0"
               id="barcode_bar9"
               width="1"
               height="30" />
            <rect
               x="16"
               y="0"
               id="barcode_bar11"
               width="1"
               height="30" />
            <rect
               x="20"
               y="0"
               id="barcode_bar13"
               width="1"
               height="30" />
            <rect
               x="23"
               y="0"
               id="barcode_bar15"
               width="1"
               height="30" />
            <rect
               x="25"
               y="0"
               id="barcode_bar17"
               width="3"
               height="30" />
            <rect
               x="29"
               y="0"
               id="barcode_bar19"
               width="2"
               height="30" />
            <rect
               x="33"
               y="0"
               id="barcode_bar21"
               width="1"
               height="30" />
            <rect
               x="35"
               y="0"
               id="barcode_bar23"
               width="3"
               height="30" />
            <rect
               x="39"
               y="0"
               id="barcode_bar25"
               width="3"
               height="30" />
            <rect
               x="43"
               y="0"
               id="barcode_bar27"
               width="2"
               height="30" />
            <rect
               x="46"
               y="0"
               id="barcode_bar29"
               width="1"
               height="34" />
            <rect
               x="48"
               y="0"
               id="barcode_bar31"
               width="1"
               height="34" />
            <rect
               x="50"
               y="0"
               id="barcode_bar33"
               width="1"
               height="30" />
            <rect
               x="53"
               y="0"
               id="barcode_bar35"
               width="3"
               height="30" />
            <rect
               x="57"
               y="0"
               id="barcode_bar37"
               width="3"
               height="30" />
            <rect
               x="61"
               y="0"
               id="barcode_bar39"
               width="1"
               height="30" />
            <rect
               x="64"
               y="0"
               id="barcode_bar41"
               width="1"
               height="30" />
            <rect
               x="68"
               y="0"
               id="barcode_bar43"
               width="1"
               height="30" />
            <rect
               x="71"
               y="0"
               id="barcode_bar45"
               width="3"
               height="30" />
            <rect
               x="75"
               y="0"
               id="barcode_bar47"
               width="1"
               height="30" />
            <rect
               x="78"
               y="0"
               id="barcode_bar49"
               width="2"
               height="30" />
            <rect
               x="82"
               y="0"
               id="barcode_bar51"
               width="2"
               height="30" />
            <rect
               x="85"
               y="0"
               id="barcode_bar53"
               width="3"
               height="30" />
            <rect
               x="90"
               y="0"
               id="barcode_bar55"
               width="1"
               height="30" />
            <rect
               x="92"
               y="0"
               id="barcode_bar57"
               width="1"
               height="34" />
            <rect
               x="94"
               y="0"
               id="barcode_bar59"
               width="1"
               height="34" />
            <path
               style="font-size:10.6667px;font-family:Sans;-inkscape-font-specification:'Sans, Normal';text-align:center;text-anchor:middle"
               d="m -6.1121469,38.838541 v -0.958336 q 0.3958345,0.1875 0.8020858,0.286459 0.4062513,0.09896 0.7968775,0.09896 1.04167,0 1.5885467,-0.697919 0.5520851,-0.703127 0.6302103,-2.130215 -0.3020842,0.447918 -0.7656274,0.687502 -0.4635431,0.239584 -1.0260449,0.239584 -1.1666703,0 -1.8489642,-0.703127 -0.6770854,-0.708336 -0.6770854,-1.932298 0,-1.19792 0.7083355,-1.921881 0.7083356,-0.723961 1.8854227,-0.723961 1.3489626,0 2.0572981,1.036462 0.713544,1.031253 0.713544,3.000009 0,1.838548 -0.8750028,2.93751 -0.8697944,1.093753 -2.3437574,1.093753 -0.3958346,0 -0.8020859,-0.07813 -0.4062513,-0.07813 -0.8437526,-0.234376 z m 2.0937566,-3.296885 q 0.7083355,0 1.1197952,-0.484377 0.416668,-0.484376 0.416668,-1.328129 0,-0.838544 -0.416668,-1.322921 -0.4114597,-0.489585 -1.1197952,-0.489585 -0.7083356,0 -1.1250036,0.489585 -0.4114596,0.484377 -0.4114596,1.322921 0,0.843753 0.4114596,1.328129 0.416668,0.484377 1.1250036,0.484377 z m 7.7864829,-4.317722 h 5.0000157 v 0.447918 L 5.9451828,39 H 4.846221 L 7.5024793,32.109353 H 3.7680926 Z m 9.3021134,4.083346 q -0.750002,0 -1.182295,0.401043 -0.427085,0.401043 -0.427085,1.10417 0,0.703127 0.427085,1.10417 0.432293,0.401043 1.182295,0.401043 0.750003,0 1.182296,-0.401043 0.432293,-0.406251 0.432293,-1.10417 0,-0.703127 -0.432293,-1.10417 Q 13.825417,35.30728 13.070206,35.30728 Z M 12.01812,34.859362 q -0.677086,-0.166667 -1.057295,-0.63021 -0.375001,-0.463544 -0.375001,-1.130212 0,-0.932295 0.66146,-1.473963 0.666669,-0.541669 1.822922,-0.541669 1.161462,0 1.822923,0.541669 0.66146,0.541668 0.66146,1.473963 0,0.666668 -0.380209,1.130212 -0.375001,0.463543 -1.046879,0.63021 0.760419,0.177084 1.182296,0.69271 0.427084,0.515627 0.427084,1.260421 0,1.130212 -0.69271,1.734381 -0.687502,0.604168 -1.973965,0.604168 -1.286462,0 -1.979173,-0.604168 -0.687502,-0.604169 -0.687502,-1.734381 0,-0.744794 0.427085,-1.260421 0.427085,-0.515626 1.187504,-0.69271 z m -0.385418,-1.661464 q 0,0.604169 0.375001,0.942712 0.38021,0.338542 1.062503,0.338542 0.677086,0 1.057295,-0.338542 0.385418,-0.338543 0.385418,-0.942712 0,-0.604168 -0.385418,-0.942711 -0.380209,-0.338543 -1.057295,-0.338543 -0.682293,0 -1.062503,0.338543 -0.375001,0.338543 -0.375001,0.942711 z m 8.223984,2.109382 q -0.750002,0 -1.182295,0.401043 -0.427085,0.401043 -0.427085,1.10417 0,0.703127 0.427085,1.10417 0.432293,0.401043 1.182295,0.401043 0.750003,0 1.182296,-0.401043 0.432293,-0.406251 0.432293,-1.10417 0,-0.703127 -0.432293,-1.10417 Q 20.611897,35.30728 19.856686,35.30728 Z M 18.8046,34.859362 q -0.677086,-0.166667 -1.057295,-0.63021 -0.375001,-0.463544 -0.375001,-1.130212 0,-0.932295 0.66146,-1.473963 0.666669,-0.541669 1.822922,-0.541669 1.161462,0 1.822923,0.541669 0.66146,0.541668 0.66146,1.473963 0,0.666668 -0.380209,1.130212 -0.375002,0.463543 -1.046879,0.63021 0.760419,0.177084 1.182296,0.69271 0.427084,0.515627 0.427084,1.260421 0,1.130212 -0.69271,1.734381 -0.687502,0.604168 -1.973965,0.604168 -1.286462,0 -1.979173,-0.604168 -0.687502,-0.604169 -0.687502,-1.734381 0,-0.744794 0.427085,-1.260421 0.427085,-0.515626 1.187504,-0.69271 z m -0.385418,-1.661464 q 0,0.604169 0.375001,0.942712 0.38021,0.338542 1.062503,0.338542 0.677086,0 1.057295,-0.338542 0.385418,-0.338543 0.385418,-0.942712 0,-0.604168 -0.385418,-0.942711 -0.380209,-0.338543 -1.057295,-0.338543 -0.682293,0 -1.062503,0.338543 -0.375001,0.338543 -0.375001,0.942711 z m 5.708351,-1.973964 h 5.000016 v 0.447918 L 26.304624,39 h -1.098962 l 2.656258,-6.890647 h -3.734387 z m 7.083356,7.614607 v -0.958336 q 0.395835,0.1875 0.802086,0.286459 0.406251,0.09896 0.796878,0.09896 1.04167,0 1.588546,-0.697919 0.552085,-0.703127 0.630211,-2.130215 -0.302085,0.447918 -0.765628,0.687502 -0.463543,0.239584 -1.026045,0.239584 -1.16667,0 -1.848964,-0.703127 -0.677085,-0.708336 -0.677085,-1.932298 0,-1.19792 0.708335,-1.921881 0.708336,-0.723961 1.885423,-0.723961 1.348962,0 2.057298,1.036462 0.713544,1.031253 0.713544,3.000009 0,1.838548 -0.875003,2.93751 -0.869794,1.093753 -2.343757,1.093753 -0.395835,0 -0.802086,-0.07813 -0.406251,-0.07813 -0.843753,-0.234376 z m 2.093757,-3.296885 q 0.708335,0 1.119795,-0.484377 0.416668,-0.484376 0.416668,-1.328129 0,-0.838544 -0.416668,-1.322921 -0.41146,-0.489585 -1.119795,-0.489585 -0.708336,0 -1.125004,0.489585 -0.411459,0.484377 -0.411459,1.322921 0,0.843753 0.411459,1.328129 0.416668,0.484377 1.125004,0.484377 z m 4.395847,-4.317722 h 5.000016 v 0.447918 L 39.877583,39 h -1.098961 l 2.656258,-6.890647 h -3.734387 z m 13.843792,0 h 4.130221 v 0.885419 H 52.50783 v 1.906256 q 0.229167,-0.07813 0.458334,-0.114583 0.229168,-0.04167 0.458335,-0.04167 1.302088,0 2.062507,0.713544 0.760419,0.713544 0.760419,1.932297 0,1.255213 -0.781253,1.953132 -0.781252,0.69271 -2.203132,0.69271 -0.489585,0 -1.000003,-0.08333 -0.50521,-0.08333 -1.046878,-0.250001 v -1.057295 q 0.468751,0.255209 0.968753,0.380209 0.500001,0.125001 1.057295,0.125001 0.901044,0 1.427088,-0.47396 0.526043,-0.47396 0.526043,-1.286463 0,-0.812502 -0.526043,-1.286462 -0.526044,-0.47396 -1.427088,-0.47396 -0.421876,0 -0.843753,0.09375 -0.416668,0.09375 -0.854169,0.291667 z m 6.807313,7.614607 v -0.958336 q 0.395835,0.1875 0.802086,0.286459 0.406251,0.09896 0.796878,0.09896 1.04167,0 1.588546,-0.697919 0.552085,-0.703127 0.630211,-2.130215 -0.302085,0.447918 -0.765628,0.687502 -0.463543,0.239584 -1.026045,0.239584 -1.16667,0 -1.848964,-0.703127 -0.677085,-0.708336 -0.677085,-1.932298 0,-1.19792 0.708335,-1.921881 0.708336,-0.723961 1.885423,-0.723961 1.348962,0 2.057298,1.036462 0.713544,1.031253 0.713544,3.000009 0,1.838548 -0.875003,2.93751 -0.869794,1.093753 -2.343757,1.093753 -0.395835,0 -0.802086,-0.07813 -0.406251,-0.07813 -0.843753,-0.234376 z m 2.093757,-3.296885 q 0.708335,0 1.119795,-0.484377 0.416668,-0.484376 0.416668,-1.328129 0,-0.838544 -0.416668,-1.322921 -0.41146,-0.489585 -1.119795,-0.489585 -0.708336,0 -1.125004,0.489585 -0.411459,0.484377 -0.411459,1.322921 0,0.843753 0.411459,1.328129 0.416668,0.484377 1.125004,0.484377 z m 4.395851,-4.317722 h 5.000016 v 0.447918 L 67.018296,39 h -1.098962 l 2.656259,-6.890647 h -3.734387 z m 7.083352,7.614607 v -0.958336 q 0.395835,0.1875 0.802086,0.286459 0.406251,0.09896 0.796877,0.09896 1.04167,0 1.588547,-0.697919 0.552085,-0.703127 0.63021,-2.130215 -0.302084,0.447918 -0.765627,0.687502 -0.463543,0.239584 -1.026045,0.239584 -1.16667,0 -1.848964,-0.703127 -0.677086,-0.708336 -0.677086,-1.932298 0,-1.19792 0.708336,-1.921881 0.708336,-0.723961 1.885423,-0.723961 1.348962,0 2.057298,1.036462 0.713544,1.031253 0.713544,3.000009 0,1.838548 -0.875003,2.93751 -0.869794,1.093753 -2.343757,1.093753 -0.395835,0 -0.802086,-0.07813 -0.406252,-0.07813 -0.843753,-0.234376 z m 2.093757,-3.296885 q 0.708335,0 1.119795,-0.484377 0.416668,-0.484376 0.416668,-1.328129 0,-0.838544 -0.416668,-1.322921 -0.41146,-0.489585 -1.119795,-0.489585 -0.708336,0 -1.125004,0.489585 -0.41146,0.484377 -0.41146,1.322921 0,0.843753 0.41146,1.328129 0.416668,0.484377 1.125004,0.484377 z m 4.843769,2.572925 h 1.718755 V 32.18227 l -1.869797,0.375001 v -0.958336 l 1.859381,-0.375001 h 1.052086 v 6.890647 h 1.718756 V 39 h -4.479181 z m 8.854191,-6.197937 q -0.812503,0 -1.223962,0.802086 -0.406252,0.796878 -0.406252,2.401049 0,1.598964 0.406252,2.40105 0.411459,0.796877 1.223962,0.796877 0.817711,0 1.223962,-0.796877 0.41146,-0.802086 0.41146,-2.40105 0,-1.604171 -0.41146,-2.401049 -0.406251,-0.802086 -1.223962,-0.802086 z m 0,-0.833336 q 1.307296,0 1.994798,1.036462 0.69271,1.031253 0.69271,3.000009 0,1.963548 -0.69271,3.00001 -0.687502,1.031253 -1.994798,1.031253 -1.307296,0 -2.000006,-1.031253 -0.687503,-1.036462 -0.687503,-3.00001 0,-1.968756 0.687503,-3.000009 0.69271,-1.036462 2.000006,-1.036462 z"
               id="barcode_text"
               aria-label="9 788797  597910    " />
            <path
               style="font-size:7.73981px;font-family:Sans;-inkscape-font-specification:'Sans, Normal';text-align:center;text-anchor:middle;stroke-width:0.725605"
               d="m 0.00141614,-9.3800803 h 0.76339923 v 5.6423517 H 0.00141614 Z m 5.66502696,0.185181 v 0.7445032 Q 5.2318346,-8.6582523 4.8463558,-8.7602908 4.460877,-8.8623294 4.1018526,-8.8623294 q -0.6235687,0 -0.9636971,0.2418691 -0.3363491,0.2418691 -0.3363491,0.6878152 0,0.3741412 0.222973,0.5668806 0.2267523,0.1889602 0.8541001,0.3061155 l 0.4610629,0.09448 q 0.8541002,0.1625058 1.258475,0.574439 0.408154,0.4081541 0.408154,1.0959692 0,0.8200873 -0.5517638,1.2433582 -0.5479845,0.4232708 -1.6099409,0.4232708 -0.4005956,0 -0.8541001,-0.090701 -0.4497253,-0.090701 -0.9334634,-0.2683235 v -0.7860744 q 0.4648421,0.2607651 0.9107882,0.3930372 0.445946,0.1322722 0.8767753,0.1322722 0.6538023,0 1.0090475,-0.2569859 0.3552452,-0.2569859 0.3552452,-0.7331656 0,-0.4157125 -0.2569859,-0.6500231 -0.2532067,-0.2343107 -0.8352041,-0.351466 L 3.6521273,-6.3302626 Q 2.7980272,-6.5003268 2.4163276,-6.8631304 2.0346279,-7.225934 2.0346279,-7.8721779 q 0,-0.7482824 0.5253094,-1.1791117 0.5290886,-0.4308292 1.4549936,-0.4308292 0.3968164,0 0.8087497,0.071805 0.4119332,0.071805 0.8427625,0.2154146 z m 2.2939766,2.7625982 v 2.0672246 h 1.2244621 q 0.6160103,0 0.9107882,-0.2532067 0.298557,-0.2569858 0.298557,-0.7822952 0,-0.5290886 -0.298557,-0.778516 -0.2947779,-0.2532067 -0.9107882,-0.2532067 z m 0,-2.3204313 v 1.7006418 h 1.129982 q 0.5593222,0 0.8314249,-0.2078562 0.2758824,-0.2116354 0.2758824,-0.6424647 0,-0.4270501 -0.2758824,-0.6386855 Q 9.6497239,-8.7527324 9.0904017,-8.7527324 Z M 7.1970205,-9.3800803 h 1.9500693 q 0.8729962,0 1.3453962,0.3628036 0.472401,0.3628036 0.472401,1.0317227 0,0.517751 -0.241869,0.8238665 -0.241869,0.3061155 -0.71049,0.3816996 0.563101,0.1209345 0.872996,0.5064134 0.313674,0.3816996 0.313674,0.9561386 0,0.7558408 -0.513972,1.1677741 -0.513972,0.4119332 -1.4625521,0.4119332 H 7.1970205 Z m 5.3097815,0 h 1.027944 l 2.501833,4.7202259 v -4.7202259 h 0.740724 v 5.6423517 H 15.74936 l -2.501834,-4.7202259 v 4.7202259 h -0.740724 z m 8.340703,5.5251964 v -0.6953736 q 0.28722,0.1360514 0.581998,0.2078562 0.294778,0.071805 0.578218,0.071805 0.755841,0 1.152657,-0.5064133 0.400596,-0.5101926 0.457284,-1.5456945 -0.219194,0.3250116 -0.555543,0.4988549 -0.336349,0.1738434 -0.744503,0.1738434 -0.846542,0 -1.341618,-0.5101925 -0.491296,-0.5139718 -0.491296,-1.4020847 0,-0.869217 0.513971,-1.3945264 0.513972,-0.5253093 1.368072,-0.5253093 0.978814,0 1.492786,0.7520616 0.517751,0.7482824 0.517751,2.1768216 0,1.334059 -0.634906,2.1314711 -0.631127,0.7936328 -1.700642,0.7936328 -0.28722,0 -0.581998,-0.056688 -0.294778,-0.056688 -0.612231,-0.1700642 z m 1.51924,-2.3922362 q 0.513972,0 0.812529,-0.351466 0.302337,-0.351466 0.302337,-0.963697 0,-0.6084519 -0.302337,-0.9599179 -0.298557,-0.3552452 -0.812529,-0.3552452 -0.513971,0 -0.816308,0.3552452 -0.298557,0.351466 -0.298557,0.9599179 0,0.612231 0.298557,0.963697 0.302337,0.351466 0.816308,0.351466 z m 3.189649,-3.1329602 h 3.628036 v 0.3250115 l -2.048329,5.3173402 h -0.797412 l 1.927394,-4.999887 h -2.709689 z m 6.749658,2.962896 q -0.544205,0 -0.857879,0.2909987 -0.309895,0.2909987 -0.309895,0.8011913 0,0.5101925 0.309895,0.8011913 0.313674,0.2909987 0.857879,0.2909987 0.544206,0 0.85788,-0.2909987 0.313674,-0.294778 0.313674,-0.8011913 0,-0.5101926 -0.313674,-0.8011913 -0.309895,-0.2909987 -0.85788,-0.2909987 z m -0.763399,-0.3250116 q -0.491296,-0.1209345 -0.767178,-0.4572836 -0.272103,-0.3363492 -0.272103,-0.8200873 0,-0.6764776 0.479959,-1.0695148 0.483738,-0.3930372 1.322721,-0.3930372 0.842763,0 1.322722,0.3930372 0.479959,0.3930372 0.479959,1.0695148 0,0.4837381 -0.275882,0.8200873 -0.272103,0.3363491 -0.75962,0.4572836 0.551764,0.128493 0.857879,0.5026342 0.309895,0.3741412 0.309895,0.9145674 0,0.8200873 -0.502634,1.2584749 -0.498855,0.4383877 -1.432319,0.4383877 -0.933463,0 -1.436097,-0.4383877 Q 30.3711,-4.504907 30.3711,-5.3249943 q 0,-0.5404262 0.309895,-0.9145674 0.309894,-0.3741412 0.861658,-0.5026342 z M 31.262992,-7.947762 q 0,0.4383877 0.272103,0.684036 0.275882,0.2456482 0.770957,0.2456482 0.491297,0 0.767179,-0.2456482 0.279661,-0.2456483 0.279661,-0.684036 0,-0.4383876 -0.279661,-0.6840359 -0.275882,-0.2456483 -0.767179,-0.2456483 -0.495075,0 -0.770957,0.2456483 -0.272103,0.2456483 -0.272103,0.6840359 z m 3.885022,1.7800052 h 2.036991 v 0.6197894 h -2.036991 z m 4.875173,-0.2494275 q -0.544206,0 -0.857879,0.2909987 -0.309895,0.2909987 -0.309895,0.8011913 0,0.5101925 0.309895,0.8011913 0.313673,0.2909987 0.857879,0.2909987 0.544205,0 0.857879,-0.2909987 0.313674,-0.294778 0.313674,-0.8011913 0,-0.5101926 -0.313674,-0.8011913 -0.309895,-0.2909987 -0.857879,-0.2909987 z m -0.763399,-0.3250116 q -0.491297,-0.1209345 -0.767179,-0.4572836 -0.272103,-0.3363492 -0.272103,-0.8200873 0,-0.6764776 0.479959,-1.0695148 0.483739,-0.3930372 1.322722,-0.3930372 0.842762,0 1.322721,0.3930372 0.479959,0.3930372 0.479959,1.0695148 0,0.4837381 -0.275882,0.8200873 -0.272102,0.3363491 -0.75962,0.4572836 0.551764,0.128493 0.85788,0.5026342 0.309894,0.3741412 0.309894,0.9145674 0,0.8200873 -0.502634,1.2584749 -0.498855,0.4383877 -1.432318,0.4383877 -0.933464,0 -1.436098,-0.4383877 -0.498855,-0.4383876 -0.498855,-1.2584749 0,-0.5404262 0.309895,-0.9145674 0.309895,-0.3741412 0.861659,-0.5026342 z M 38.980127,-7.947762 q 0,0.4383877 0.272102,0.684036 0.275882,0.2456482 0.770958,0.2456482 0.491296,0 0.767178,-0.2456482 0.279661,-0.2456483 0.279661,-0.684036 0,-0.4383876 -0.279661,-0.6840359 -0.275882,-0.2456483 -0.767178,-0.2456483 -0.495076,0 -0.770958,0.2456483 -0.272102,0.2456483 -0.272102,0.6840359 z m 4.142009,-1.4323183 h 3.628036 v 0.3250115 l -2.048328,5.3173402 h -0.797413 l 1.927395,-4.999887 h -2.70969 z m 4.667315,3.2123235 h 2.036991 v 0.6197894 h -2.036991 z m 3.265232,2.3128729 v -0.6953736 q 0.28722,0.1360514 0.581998,0.2078562 0.294778,0.071805 0.578218,0.071805 0.755841,0 1.152657,-0.5064133 0.400596,-0.5101926 0.457284,-1.5456945 -0.219194,0.3250116 -0.555543,0.4988549 -0.336349,0.1738434 -0.744503,0.1738434 -0.846542,0 -1.341618,-0.5101925 -0.491296,-0.5139718 -0.491296,-1.4020847 0,-0.869217 0.513972,-1.3945264 0.513971,-0.5253093 1.368071,-0.5253093 0.978814,0 1.492786,0.7520616 0.517751,0.7482824 0.517751,2.1768216 0,1.334059 -0.634906,2.1314711 -0.631127,0.7936328 -1.700642,0.7936328 -0.28722,0 -0.581998,-0.056688 -0.294777,-0.056688 -0.612231,-0.1700642 z m 1.51924,-2.3922362 q 0.513972,0 0.812529,-0.351466 0.302337,-0.351466 0.302337,-0.963697 0,-0.6084519 -0.302337,-0.9599179 -0.298557,-0.3552452 -0.812529,-0.3552452 -0.513971,0 -0.816308,0.3552452 -0.298557,0.351466 -0.298557,0.9599179 0,0.612231 0.298557,0.963697 0.302337,0.351466 0.816308,0.351466 z m 3.189651,-3.1329602 h 3.628036 v 0.3250115 l -2.048329,5.3173402 h -0.797412 l 1.927394,-4.999887 h -2.709689 z m 5.124599,0 h 2.996909 v 0.6424647 h -2.297757 v 1.3831887 q 0.166285,-0.056688 0.33257,-0.083143 0.166285,-0.030234 0.33257,-0.030234 0.944801,0 1.496565,0.5177509 0.551764,0.517751 0.551764,1.4020847 0,0.9107882 -0.566881,1.4172016 -0.56688,0.5026341 -1.598603,0.5026341 -0.355245,0 -0.725607,-0.060467 -0.366583,-0.060467 -0.75962,-0.1814018 v -0.7671785 q 0.340128,0.185181 0.702932,0.2758819 0.362803,0.090701 0.767178,0.090701 0.653803,0 1.035502,-0.3439075 0.3817,-0.3439076 0.3817,-0.9334635 0,-0.5895558 -0.3817,-0.9334634 -0.381699,-0.3439075 -1.035502,-0.3439075 -0.306115,0 -0.612231,0.068026 -0.302336,0.068026 -0.619789,0.2116355 z m 4.939418,5.5251964 v -0.6953736 q 0.287219,0.1360514 0.581997,0.2078562 0.294778,0.071805 0.578218,0.071805 0.755841,0 1.152658,-0.5064133 0.400595,-0.5101926 0.457283,-1.5456945 -0.219194,0.3250116 -0.555543,0.4988549 -0.336349,0.1738434 -0.744503,0.1738434 -0.846542,0 -1.341617,-0.5101925 -0.491297,-0.5139718 -0.491297,-1.4020847 0,-0.869217 0.513972,-1.3945264 0.513972,-0.5253093 1.368072,-0.5253093 0.978814,0 1.492785,0.7520616 0.517751,0.7482824 0.517751,2.1768216 0,1.334059 -0.634906,2.1314711 -0.631127,0.7936328 -1.700642,0.7936328 -0.287219,0 -0.581997,-0.056688 -0.294778,-0.056688 -0.612231,-0.1700642 z m 1.51924,-2.3922362 q 0.513971,0 0.812529,-0.351466 0.302336,-0.351466 0.302336,-0.963697 0,-0.6084519 -0.302336,-0.9599179 -0.298558,-0.3552452 -0.812529,-0.3552452 -0.513972,0 -0.816308,0.3552452 -0.298557,0.351466 -0.298557,0.9599179 0,0.612231 0.298557,0.963697 0.302336,0.351466 0.816308,0.351466 z m 3.189654,-3.1329602 h 3.628036 v 0.3250115 l -2.048329,5.3173402 H 71.31878 l 1.927394,-4.999887 h -2.709689 z m 5.139716,5.5251964 v -0.6953736 q 0.287219,0.1360514 0.581997,0.2078562 0.294778,0.071805 0.578218,0.071805 0.755841,0 1.152658,-0.5064133 0.400595,-0.5101926 0.457283,-1.5456945 -0.219194,0.3250116 -0.555543,0.4988549 -0.336349,0.1738434 -0.744503,0.1738434 -0.846542,0 -1.341617,-0.5101925 -0.491297,-0.5139718 -0.491297,-1.4020847 0,-0.869217 0.513972,-1.3945264 0.513972,-0.5253093 1.368072,-0.5253093 0.978814,0 1.492785,0.7520616 0.517751,0.7482824 0.517751,2.1768216 0,1.334059 -0.634906,2.1314711 -0.631127,0.7936328 -1.700642,0.7936328 -0.287219,0 -0.581997,-0.056688 -0.294778,-0.056688 -0.612231,-0.1700642 z m 1.51924,-2.3922362 q 0.513971,0 0.812529,-0.351466 0.302336,-0.351466 0.302336,-0.963697 0,-0.6084519 -0.302336,-0.9599179 -0.298558,-0.3552452 -0.812529,-0.3552452 -0.513972,0 -0.816308,0.3552452 -0.298558,0.351466 -0.298558,0.9599179 0,0.612231 0.298558,0.963697 0.302336,0.351466 0.816308,0.351466 z m 2.93266,0.079363 h 2.036991 v 0.6197894 h -2.036991 z m 3.374829,1.7875635 h 1.247137 v -4.3045135 l -1.356734,0.2721027 v -0.6953735 l 1.349176,-0.2721027 h 0.763399 v 4.999887 h 1.247138 v 0.6424647 H 83.50293 Z m 4.342304,-1.7875635 h 2.036991 v 0.6197894 h -2.036991 z m 4.87518,-2.7096894 q -0.589556,0 -0.888113,0.5819975 -0.294778,0.5782182 -0.294778,1.7422131 0,1.1602156 0.294778,1.742213 0.298557,0.5782183 0.888113,0.5782183 0.593335,0 0.888113,-0.5782183 0.298557,-0.5819974 0.298557,-1.742213 0,-1.1639949 -0.298557,-1.7422131 -0.294778,-0.5819975 -0.888113,-0.5819975 z m 0,-0.6046726 q 0.948581,0 1.447435,0.7520616 0.502635,0.7482824 0.502635,2.1768216 0,1.4247599 -0.502635,2.1768215 -0.498854,0.7482824 -1.447435,0.7482824 -0.94858,0 -1.451214,-0.7482824 -0.498855,-0.7520616 -0.498855,-2.1768215 0,-1.4285392 0.498855,-2.1768216 0.502634,-0.7520616 1.451214,-0.7520616 z"
               id="barcode_text-1"
               aria-label="ISBN 978-87-975979-1-0" />
          </g>
        </g>
      </g>
    </g>
  </g>
</svg>
